{"title":"Kill.Kane.2016.WEB-DL.XviD.MP3-FGT","uid":13246463,"size":1143672231,"categoryP":"video","categoryS":"movies","magnet":"?xt=urn:btih:44a8d2386604949857651ccdcb6edb4a3a763071&amp;dn=Kill.Kane.2016.WEB-DL.XviD.MP3-FGT&amp;tr=udp%3A%2F%2Ftracker.leechers-paradise.org%3A6969&amp;tr=udp%3A%2F%2Fzer0day.ch%3A1337&amp;tr=udp%3A%2F%2Fopen.demonii.com%3A1337&amp;tr=udp%3A%2F%2Ftracker.coppersurfer.tk%3A6969&amp;tr=udp%3A%2F%2Fexodus.desync.com%3A6969","seeders":0,"leechers":0,"uploader":"TheRival","files":3,"time":1453114751,"description":"Screens: \nhttp://extraimago.com/image/tpj \nhttp://extraimago.com/image/tpn \nhttp://extraimago.com/image/tps \nhttp://extraimago.com/image/tp7 \nhttp://extraimago.com/image/tpc \nhttp://extraimago.com/image/tp1\r\n\r\nVideo\r\nID                                       : 0\r\nFormat                                   : MPEG-4 Visual\r\nFormat profile                           :   \r\nFormat settings, BVOP                    : No\r\nFormat settings, QPel                    : No\r\nFormat settings, GMC                     : No warppoints\r\nFormat settings, Matrix                  : Default (H.263)\r\nCodec ID                                 : XVID\r\nCodec ID/Hint                            : XviD\r\nDuration                                 : 1h 14mn\r\nBit rate                                 : 1 846 Kbps\r\nWidth                                    : 720 pixels\r\nHeight                                   : 304 pixels\r\nDisplay aspect ratio                     : 2.40:1\r\nFrame rate                               : 25.000 fps\r\nColor space                              : YUV\r\nChroma subsampling                       : 4:2:0\r\nBit depth                                : 8 bits\r\nScan type                                : Progressive\r\nCompression mode                         : Lossy\r\nBits/(Pixel*Frame)                       : 0.337\r\nStream size                              : 982 MiB (90%)\r\nWriting library                          : Lavc56.13.100\r\n\r\nAudio\r\nID                                       : 1\r\nFormat                                   : MPEG Audio\r\nFormat version                           : Version 1\r\nFormat profile                           : Layer 3\r\nMode                                     : Joint stereo\r\nMode extension                           : MS Stereo\r\nCodec ID                                 : 55\r\nCodec ID/Hint                            : MP3\r\nDuration                                 : 1h 14mn\r\nBit rate mode                            : Constant\r\nBit rate                                 : 192 Kbps\r\nChannel(s)                               : 2 channels\r\nSampling rate                            : 48.0 KHz\r\nCompression mode                         : Lossy\r\nStream size                              : 102 MiB (9%)\r\nAlignment                                : Aligned on interleaves\r\nInterleave, duration                     : 24 ms (0.60 video frame)\r\nInterleave, preload duration             : 504 ms\r\nWriting library                          : LAME3.99.5","torrent":{"xt":"urn:btih:44a8d2386604949857651ccdcb6edb4a3a763071","amp;dn":"Kill.Kane.2016.WEB-DL.XviD.MP3-FGT","amp;tr":["udp%3A%2F%2Ftracker.leechers-paradise.org%3A6969","udp%3A%2F%2Fzer0day.ch%3A1337","udp%3A%2F%2Fopen.demonii.com%3A1337","udp%3A%2F%2Ftracker.coppersurfer.tk%3A6969","udp%3A%2F%2Fexodus.desync.com%3A6969"],"infoHash":"44a8d2386604949857651ccdcb6edb4a3a763071","infoHashBuffer":{"type":"Buffer","data":[68,168,210,56,102,4,148,152,87,101,28,205,203,110,219,74,58,118,48,113]},"announce":[],"urlList":[]}}